<svg fill="none" viewBox="0 0 24 24" xmlns="http://www.w3.org/2000/svg">
  <path fill="#000" fill-rule="evenodd" d="M9.973 9.014a5.014 5.014 0 1 1 3.28 4.706 1 1 0 0 0-1.066.244l-.612.636H10.2a1 1 0 0 0-1 1v1.7H7.5a1 1 0 0 0-1 1V20H4v-2.45l5.972-5.972a1 1 0 0 0 .244-1.016 5.008 5.008 0 0 1-.243-1.547ZM14.986 2a7.014 7.014 0 0 0-6.84 8.573l-5.853 5.854a1 1 0 0 0-.293.707V21a1 1 0 0 0 1 1h3.6a1.9 1.9 0 0 0 1.9-1.9v-.8h.8a1.9 1.9 0 0 0 1.9-1.9v-.8h.8a1 1 0 0 0 .72-.306l.479-.497A7.014 7.014 0 1 0 14.987 2ZM15 8.5a.5.5 0 1 1 1 0 .5.5 0 0 1-1 0Zm.5-2.5a2.5 2.5 0 1 0 0 5 2.5 2.5 0 0 0 0-5Z" clip-rule="evenodd"/>
</svg>
