<svg width="128" height="97" viewBox="0 0 128 97" fill="none" xmlns="http://www.w3.org/2000/svg">
<path opacity="0.2" d="M112.371 40.7824L110.829 41.1824C110.543 41.2396 110.257 41.5253 110.2 41.811L109.8 43.3539C109.686 43.7539 109.343 43.9824 109 43.9824C108.6 43.9824 108.257 43.6967 108.2 43.3539L107.8 41.811C107.743 41.5253 107.457 41.2396 107.171 41.1824L105.629 40.7824C105.229 40.6681 105 40.3253 105 39.9824C105 39.5824 105.286 39.2396 105.629 39.1824L107.171 38.7824C107.457 38.7253 107.743 38.4396 107.8 38.1539L108.2 36.611C108.314 36.211 108.657 35.9824 109 35.9824C109.4 35.9824 109.743 36.2681 109.8 36.611L110.2 38.1539C110.257 38.4396 110.543 38.7253 110.829 38.7824L112.371 39.1824C112.771 39.2967 113 39.6396 113 39.9824C113 40.3824 112.714 40.7253 112.371 40.7824Z" fill="#888888"/>
<path opacity="0.2" d="M26.0572 35.1824L23.7429 35.7824C23.3143 35.8681 22.8857 36.2967 22.8 36.7253L22.2 39.0396C22.0286 39.6396 21.5143 39.9824 21 39.9824C20.4 39.9824 19.8857 39.5539 19.8 39.0396L19.2 36.7253C19.1143 36.2967 18.6857 35.8681 18.2571 35.7824L15.9428 35.1824C15.3428 35.011 15 34.4967 15 33.9824C15 33.3824 15.4286 32.8681 15.9428 32.7824L18.2571 32.1824C18.6857 32.0967 19.1143 31.6681 19.2 31.2396L19.8 28.9253C19.9714 28.3253 20.4857 27.9824 21 27.9824C21.6 27.9824 22.1143 28.411 22.2 28.9253L22.8 31.2396C22.8857 31.6681 23.3143 32.0967 23.7429 32.1824L26.0572 32.7824C26.6572 32.9538 27 33.4681 27 33.9824C27 34.5824 26.5714 35.0967 26.0572 35.1824Z" fill="#888888"/>
<path opacity="0.2" d="M7.37144 55.7824L5.82858 56.1824C5.54286 56.2396 5.25713 56.5253 5.19999 56.811L4.80001 58.3539C4.68573 58.7539 4.34286 58.9824 4 58.9824C3.6 58.9824 3.25713 58.6967 3.19999 58.3539L2.80001 56.811C2.74287 56.5253 2.45714 56.2396 2.17142 56.1824L0.628558 55.7824C0.228557 55.6681 0 55.3253 0 54.9824C0 54.5824 0.2857 54.2396 0.628558 54.1824L2.17142 53.7824C2.45714 53.7253 2.74287 53.4396 2.80001 53.1539L3.19999 51.611C3.31427 51.211 3.65714 50.9824 4 50.9824C4.4 50.9824 4.74287 51.2681 4.80001 51.611L5.19999 53.1539C5.25713 53.4396 5.54286 53.7253 5.82858 53.7824L7.37144 54.1824C7.77144 54.2967 8 54.6396 8 54.9824C8 55.3824 7.7143 55.7253 7.37144 55.7824Z" fill="#888888"/>
<path opacity="0.2" d="M126.5 52.9824C125.675 52.9824 125 52.3074 125 51.4824C125 50.6574 125.675 49.9824 126.5 49.9824C127.325 49.9824 128 50.6574 128 51.4824C128 52.3074 127.325 52.9824 126.5 52.9824Z" fill="#888888"/>
<path opacity="0.2" d="M23 70.9824C21.9 70.9824 21 70.0824 21 68.9824C21 67.8824 21.9 66.9824 23 66.9824C24.1 66.9824 25 67.8824 25 68.9824C25 70.0824 24.1 70.9824 23 70.9824Z" fill="#888888"/>
<path fill-rule="evenodd" clip-rule="evenodd" d="M96 48.9824C96 65.551 82.5685 78.9824 66 78.9824C65.3279 78.9824 64.661 78.9603 64 78.9168V78.9824H61V78.5676C46.8114 76.1872 36 63.8474 36 48.9824C36 34.1174 46.8114 21.7776 61 19.3972V18.9824H64V19.048C64.661 19.0045 65.3279 18.9824 66 18.9824C82.5685 18.9824 96 32.4139 96 48.9824Z" fill="#2B55CA"/>
<path d="M62 78.9824C78.5685 78.9824 92 65.551 92 48.9824C92 32.4139 78.5685 18.9824 62 18.9824C45.4315 18.9824 32 32.4139 32 48.9824C32 65.551 45.4315 78.9824 62 78.9824Z" fill="#557FF3"/>
<path d="M62 72.9824C75.2548 72.9824 86 62.2373 86 48.9824C86 35.7276 75.2548 24.9824 62 24.9824C48.7452 24.9824 38 35.7276 38 48.9824C38 62.2373 48.7452 72.9824 62 72.9824Z" fill="#FFF7E0"/>
<path fill-rule="evenodd" clip-rule="evenodd" d="M64 66.9824C64 65.8779 63.1046 64.9824 62 64.9824C60.8954 64.9824 60 65.8779 60 66.9824V68.9824C60 70.087 60.8954 70.9824 62 70.9824C63.1046 70.9824 64 70.087 64 68.9824V66.9824ZM64 28.9824C64 27.8779 63.1046 26.9824 62 26.9824C60.8954 26.9824 60 27.8779 60 28.9824V30.9824C60 32.087 60.8954 32.9824 62 32.9824C63.1046 32.9824 64 32.087 64 30.9824V28.9824ZM84 48.9824C84 50.087 83.1046 50.9824 82 50.9824H80C78.8954 50.9824 78 50.087 78 48.9824C78 47.8779 78.8954 46.9824 80 46.9824H82C83.1046 46.9824 84 47.8779 84 48.9824ZM44 50.9824C45.1046 50.9824 46 50.087 46 48.9824C46 47.8779 45.1046 46.9824 44 46.9824H42C40.8954 46.9824 40 47.8779 40 48.9824C40 50.087 40.8954 50.9824 42 50.9824H44ZM73 29.9298C73.9566 30.4821 74.2843 31.7053 73.7321 32.6619L72.7321 34.3939C72.1798 35.3505 70.9566 35.6783 70 35.126C69.0434 34.5737 68.7157 33.3505 69.268 32.3939L70.268 30.6619C70.8202 29.7053 72.0434 29.3775 73 29.9298ZM54.7321 65.5708C55.2843 64.6142 54.9566 63.391 54 62.8387C53.0434 62.2865 51.8202 62.6142 51.2679 63.5708L50.2679 65.3029C49.7157 66.2594 50.0434 67.4826 51 68.0349C51.9566 68.5872 53.1798 68.2594 53.7321 67.3029L54.7321 65.5708ZM81.0524 59.9824C80.5001 60.939 79.2769 61.2668 78.3203 60.7145L76.5883 59.7145C75.6317 59.1622 75.3039 57.939 75.8562 56.9824C76.4085 56.0258 77.6317 55.6981 78.5883 56.2504L80.3203 57.2504C81.2769 57.8027 81.6046 59.0258 81.0524 59.9824ZM45.4116 41.7145C46.3682 42.2668 47.5914 41.939 48.1437 40.9824C48.696 40.0258 48.3682 38.8027 47.4116 38.2504L45.6796 37.2504C44.723 36.6981 43.4998 37.0258 42.9475 37.9824C42.3952 38.939 42.723 40.1622 43.6796 40.7145L45.4116 41.7145ZM81.0524 37.9824C81.6046 38.939 81.2769 40.1622 80.3203 40.7145L78.5883 41.7145C77.6317 42.2668 76.4085 41.939 75.8562 40.9824C75.3039 40.0258 75.6317 38.8027 76.5883 38.2504L78.3203 37.2504C79.2769 36.6981 80.5001 37.0258 81.0524 37.9824ZM47.4116 59.7145C48.3682 59.1622 48.696 57.939 48.1437 56.9824C47.5914 56.0258 46.3682 55.6981 45.4116 56.2504L43.6796 57.2504C42.723 57.8027 42.3952 59.0258 42.9475 59.9824C43.4998 60.939 44.723 61.2668 45.6796 60.7145L47.4116 59.7145ZM73 68.035C72.0434 68.5873 70.8202 68.2596 70.2679 67.303L69.268 65.5709C68.7157 64.6143 69.0434 63.3912 70 62.8389C70.9566 62.2866 72.1798 62.6143 72.7321 63.5709L73.7321 65.303C74.2843 66.2596 73.9566 67.4827 73 68.035ZM51.2679 34.394C51.8202 35.3506 53.0434 35.6784 54 35.1261C54.9566 34.5738 55.2843 33.3506 54.7321 32.394L53.7321 30.662C53.1798 29.7054 51.9566 29.3777 51 29.9299C50.0434 30.4822 49.7157 31.7054 50.2679 32.662L51.2679 34.394Z" fill="#FFD65C"/>
<path fill-rule="evenodd" clip-rule="evenodd" d="M63 72.962C62.6684 72.9756 62.335 72.9824 62 72.9824C48.7452 72.9824 38 62.2373 38 48.9824C38 35.7276 48.7452 24.9824 62 24.9824C62.335 24.9824 62.6684 24.9893 63 25.0029C50.2089 25.5271 40 36.0626 40 48.9824C40 61.9023 50.2089 72.4377 63 72.962Z" fill="#FFE8A3"/>
<path fill-rule="evenodd" clip-rule="evenodd" d="M62.7761 48.3519C63.1244 48.7805 63.0593 49.4103 62.6306 49.7586L46.6306 62.7588C46.202 63.1071 45.5722 63.0419 45.2239 62.6133C44.8757 62.1847 44.9408 61.5549 45.3694 61.2066L61.3694 48.2063C61.7981 47.8581 62.4279 47.9232 62.7761 48.3519Z" fill="#E46F4F"/>
<path d="M63.8554 51.3393L71.9788 43.8655C72.8093 43.1014 72.9115 41.8267 72.2133 40.94C71.5152 40.0534 70.252 39.8537 69.3144 40.4818L60.1436 46.6253L63.8554 51.3393Z" fill="#3969EF"/>
<path fill-rule="evenodd" clip-rule="evenodd" d="M63.649 46.4756C63.7261 46.5265 63.8016 46.5813 63.8752 46.6402L63.8794 46.6433L63.8792 46.6435C65.1709 47.6811 65.3769 49.5693 64.3393 50.861C63.3018 52.1528 61.4135 52.3588 60.1217 51.3212C60.0442 51.259 59.9706 51.1937 59.901 51.1256L45.8737 38.7158C45.0352 37.9739 44.9271 36.7042 45.6283 35.8313C46.3294 34.9584 47.5925 34.7901 48.4978 35.4489L63.649 46.4756Z" fill="#2B55CA"/>
</svg>
