<svg fill="none" viewBox="0 0 24 24" xmlns="http://www.w3.org/2000/svg">
  <path fill="#000" d="M11.73 14.228c-1.415 0-2.23-.745-2.23-1.76 0-1.288 1.178-1.915 2.167-2.44C12.383 9.645 13 9.317 13 8.83c0-.338-.295-.603-.929-.603-.664 0-1.803.274-2.57.803V7.156c.826-.47 2.127-.781 3.086-.781 1.844 0 2.95.941 2.95 2.191 0 1.6-1.396 2.239-2.5 2.743-.723.33-1.32.604-1.32 1.051 0 .294.295.5.738.5.442 0 .693 1.368-.723 1.368m-1.919 2.337c0-.693.564-1.44 1.494-1.44.547 0 1.185.328 1.185 1.13 0 .638-.437 1.422-1.477 1.422-.565 0-1.203-.274-1.203-1.112"/>
  <path fill="#000" fill-rule="evenodd" d="M2 12C2 6.477 6.477 2 12 2s10 4.477 10 10-4.477 10-10 10S2 17.523 2 12m10-8a8 8 0 1 0 0 16 8 8 0 0 0 0-16" clip-rule="evenodd"/>
</svg>
