<?xml version="1.0" encoding="UTF-8"?>
<svg height="600" width="800" xmlns="http://www.w3.org/2000/svg" xmlns:xlink="http://www.w3.org/1999/xlink">
    <g id="Notes" font-family="'LucidaGrande', 'Lucida Grande', sans-serif" font-size="13">
        <rect fill="white" height="600.0" width="800.0" x="0.0" y="0.0" />
        <g font-size="13">
            <text x="18.0" y="176.0">Small</text>
            <text x="18.0" y="376.0">Medium</text>
            <text x="18.0" y="576.0">Large</text>
        </g>
        <g font-size="9">
            <text x="250.0" y="30.0">Ultralight</text>
            <text x="450.0" y="30.0">Regular</text>
            <text x="650.0" y="30.0">Black</text>
            <text id="template-version" fill="#505050" text-anchor="end" x="785.0" y="575.0">Template v.3.0</text>
            <a href="https://wangchujiang.com/#/app">
                <text fill="#505050" text-anchor="end" x="785.0" y="590.0">https://wangchujiang.com/#/app</text>
            </a>
        </g>
    </g>
    <g id="Guides" stroke="rgb(39, 170, 225)" stroke-width="0.5">
        <path id="Capline-S" d="M18,76 l800,0" />
        <path id="H-reference" d="M85,145.755 L87.685,145.755 L113.369,79.287 L114.052,79.287 L114.052,76 L112.148,76 L85,145.755 Z M95.693,121.536 L130.996,121.536 L130.263,119.313 L96.474,119.313 L95.693,121.536 Z M139.15,145.755 L141.787,145.755 L114.638,76 L113.466,76 L113.466,79.287 L139.15,145.755 Z" stroke="none" />
        <path id="Baseline-S" d="M18,146 l800,0" />
        <path id="left-margin-Ultralight-S" d="M221,56 l0,110" />
        <path id="right-margin-Ultralight-S" d="M309,56 l0,110" />
        <path id="left-margin-Regular-S" d="M421,56 l0,110" />
        <path id="right-margin-Regular-S" d="M509,56 l0,110" />
        <path id="left-margin-Black-S" d="M621,56 l0,110" />
        <path id="right-margin-Black-S" d="M709,56 l0,110" />
        <path id="Capline-M" d="M18,276 l800,0" />
        <path id="Baseline-M" d="M18,346 l800,0" />
        <path id="Capline-L" d="M18,476 l800,0" />
        <path id="Baseline-L" d="M18,546 l800,0" />
    </g>
    <g id="Symbols">
        <g id="Ultralight-S">
            <path d="M257.136,145.222 C248.379,142.421 241.12,135.579 237.363,125.159 C231.776,110.301 243.287,98.48 243.287,98.48 C243.287,98.48 242.955,101.512 244.372,104.857 C245.789,108.199 248.542,110.611 248.542,110.611 C248.542,110.611 245.874,103.611 252.38,91.944 C259.72,78.802 275.902,76 275.902,76 C275.902,76 271.813,82.302 273.644,88.754 C275.066,93.579 277.397,95.913 279.984,102.444 C282.572,109.135 282.155,112.79 282.155,112.79 C282.155,112.79 282.907,108.67 284.741,105.869 C288.745,99.722 294.167,98.246 294.167,98.246 C294.167,98.246 291.332,103.845 292,111.389 C292.499,116.913 293.333,123.29 290.248,130.445 C287.826,136.123 280.822,143.901 270.979,146 C276.652,143.667 280.405,138.222 279.988,132.313 C279.737,128.891 277.57,125.622 275.235,123.368 C273.817,131.999 268.728,133.011 268.728,133.011 C268.728,133.011 271.647,127.336 272.065,121.035 C272.316,118.547 272.149,115.9 271.315,113.257 C268.647,104.313 264.059,101.9 264.059,101.9 C264.059,101.9 265.562,107.11 260.055,115.511 C256.217,121.345 249.711,125.622 249.962,134.332 C250.132,138.999 253.051,142.968 257.136,145.222 Z" />
        </g>
        <g id="Regular-S">
            <path d="M457.136,145.222 C448.379,142.421 441.12,135.579 437.363,125.159 C431.776,110.301 443.287,98.48 443.287,98.48 C443.287,98.48 442.955,101.512 444.372,104.857 C445.789,108.199 448.542,110.611 448.542,110.611 C448.542,110.611 445.874,103.611 452.38,91.944 C459.72,78.802 475.902,76 475.902,76 C475.902,76 471.813,82.302 473.644,88.754 C475.066,93.579 477.397,95.913 479.984,102.444 C482.572,109.135 482.155,112.79 482.155,112.79 C482.155,112.79 482.907,108.67 484.741,105.869 C488.745,99.722 494.167,98.246 494.167,98.246 C494.167,98.246 491.332,103.845 492,111.389 C492.499,116.913 493.333,123.29 490.248,130.445 C487.826,136.123 480.822,143.901 470.979,146 C476.652,143.667 480.405,138.222 479.988,132.313 C479.737,128.891 477.57,125.622 475.235,123.368 C473.817,131.999 468.728,133.011 468.728,133.011 C468.728,133.011 471.647,127.336 472.065,121.035 C472.316,118.547 472.149,115.9 471.315,113.257 C468.647,104.313 464.059,101.9 464.059,101.9 C464.059,101.9 465.562,107.11 460.055,115.511 C456.217,121.345 449.711,125.622 449.962,134.332 C450.132,138.999 453.051,142.968 457.136,145.222 Z" />
        </g>
        <g id="Black-S">
            <path d="M657.136,145.222 C648.379,142.421 641.12,135.579 637.363,125.159 C631.776,110.301 643.287,98.48 643.287,98.48 C643.287,98.48 642.955,101.512 644.372,104.857 C645.789,108.199 648.542,110.611 648.542,110.611 C648.542,110.611 645.874,103.611 652.38,91.944 C659.72,78.802 675.902,76 675.902,76 C675.902,76 671.813,82.302 673.644,88.754 C675.066,93.579 677.397,95.913 679.984,102.444 C682.572,109.135 682.155,112.79 682.155,112.79 C682.155,112.79 682.907,108.67 684.741,105.869 C688.745,99.722 694.167,98.246 694.167,98.246 C694.167,98.246 691.332,103.845 692,111.389 C692.499,116.913 693.333,123.29 690.248,130.445 C687.826,136.123 680.822,143.901 670.979,146 C676.652,143.667 680.405,138.222 679.988,132.313 C679.737,128.891 677.57,125.622 675.235,123.368 C673.817,131.999 668.729,133.011 668.729,133.011 C668.729,133.011 671.647,127.336 672.065,121.035 C672.316,118.547 672.149,115.9 671.315,113.257 C668.647,104.313 664.06,101.9 664.06,101.9 C664.06,101.9 665.562,107.11 660.055,115.511 C656.217,121.345 649.711,125.622 649.962,134.332 C650.132,138.999 653.051,142.968 657.136,145.222 Z" />
        </g>
    </g>
</svg>