<svg width="16" height="16" viewBox="0 0 16 16" fill="none" xmlns="http://www.w3.org/2000/svg">
<g id="Icon" clip-path="url(#clip0_4366_14204)">
<g id="Shape">
<path d="M8.62405 3.625C8.62405 3.27982 8.34423 3 7.99905 3C7.65388 3 7.37405 3.27982 7.37405 3.625V8C7.37405 8.34518 7.65388 8.625 7.99905 8.625H11.3741C11.7192 8.625 11.9991 8.34518 11.9991 8C11.9991 7.65482 11.7192 7.375 11.3741 7.375H8.62405V3.625Z" fill="black" fill-opacity="0.84"/>
<path fill-rule="evenodd" clip-rule="evenodd" d="M7.99906 -0.0107422C3.57483 -0.0107422 -0.0117188 3.5758 -0.0117188 8.00003C-0.0117188 12.4243 3.57483 16.0108 7.99906 16.0108C12.4233 16.0108 16.0098 12.4243 16.0098 8.00003C16.0098 3.5758 12.4233 -0.0107422 7.99906 -0.0107422ZM1.25983 8.00003C1.25983 4.27806 4.27709 1.26081 7.99906 1.26081C11.721 1.26081 14.7383 4.27806 14.7383 8.00003C14.7383 11.722 11.721 14.7393 7.99906 14.7393C4.27709 14.7393 1.25983 11.722 1.25983 8.00003Z" fill="black" fill-opacity="0.84"/>
</g>
</g>
<defs>
<clipPath id="clip0_4366_14204">
<rect width="16" height="16" fill="white"/>
</clipPath>
</defs>
</svg>
