<?xml version="1.0" encoding="UTF-8"?>
<svg height="600" width="800" xmlns="http://www.w3.org/2000/svg" xmlns:xlink="http://www.w3.org/1999/xlink">
    <g id="Notes" font-family="'LucidaGrande', 'Lucida Grande', sans-serif" font-size="13">
        <rect fill="white" height="600.0" width="800.0" x="0.0" y="0.0" />
        <g font-size="13">
            <text x="18.0" y="176.0">Small</text>
            <text x="18.0" y="376.0">Medium</text>
            <text x="18.0" y="576.0">Large</text>
        </g>
        <g font-size="9">
            <text x="250.0" y="30.0">Ultralight</text>
            <text x="450.0" y="30.0">Regular</text>
            <text x="650.0" y="30.0">Black</text>
            <text id="template-version" fill="#505050" text-anchor="end" x="785.0" y="575.0">Template v.3.0</text>
            <a href="https://wangchujiang.com/#/app">
                <text fill="#505050" text-anchor="end" x="785.0" y="590.0">https://wangchujiang.com/#/app</text>
            </a>
        </g>
    </g>
    <g id="Guides" stroke="rgb(39, 170, 225)" stroke-width="0.5">
        <path id="Capline-S" d="M18,76 l800,0" />
        <path id="H-reference" d="M85,145.755 L87.685,145.755 L113.369,79.287 L114.052,79.287 L114.052,76 L112.148,76 L85,145.755 Z M95.693,121.536 L130.996,121.536 L130.263,119.313 L96.474,119.313 L95.693,121.536 Z M139.15,145.755 L141.787,145.755 L114.638,76 L113.466,76 L113.466,79.287 L139.15,145.755 Z" stroke="none" />
        <path id="Baseline-S" d="M18,146 l800,0" />
        <path id="left-margin-Ultralight-S" d="M220,56 l0,110" />
        <path id="right-margin-Ultralight-S" d="M310,56 l0,110" />
        <path id="left-margin-Regular-S" d="M420,56 l0,110" />
        <path id="right-margin-Regular-S" d="M510,56 l0,110" />
        <path id="left-margin-Black-S" d="M620,56 l0,110" />
        <path id="right-margin-Black-S" d="M710,56 l0,110" />
        <path id="Capline-M" d="M18,276 l800,0" />
        <path id="Baseline-M" d="M18,346 l800,0" />
        <path id="Capline-L" d="M18,476 l800,0" />
        <path id="Baseline-L" d="M18,546 l800,0" />
    </g>
    <g id="Symbols">
        <g id="Ultralight-S">
            <path d="M258.984,76 C242.977,76 230,88.977 230,104.984 C230,120.992 242.977,133.969 258.984,133.969 C266.003,133.969 272.44,131.474 277.455,127.322 L295.332,145.199 C296.4,146.267 298.131,146.267 299.199,145.199 C300.267,144.131 300.267,142.4 299.199,141.332 L281.322,123.455 C285.474,118.44 287.969,112.003 287.969,104.984 C287.969,88.977 274.992,76 258.984,76 Z M235.469,104.984 C235.469,91.997 245.997,81.469 258.984,81.469 C271.972,81.469 282.5,91.997 282.5,104.984 C282.5,117.972 271.972,128.5 258.984,128.5 C245.997,128.5 235.469,117.972 235.469,104.984 Z" />
        </g>
        <g id="Regular-S">
            <path d="M458.984,76 C442.977,76 430,88.977 430,104.984 C430,120.992 442.977,133.969 458.984,133.969 C466.003,133.969 472.44,131.474 477.455,127.322 L495.332,145.199 C496.4,146.267 498.131,146.267 499.199,145.199 C500.267,144.131 500.267,142.4 499.199,141.332 L481.322,123.455 C485.474,118.44 487.969,112.003 487.969,104.984 C487.969,88.977 474.992,76 458.984,76 Z M435.469,104.984 C435.469,91.997 445.997,81.469 458.984,81.469 C471.972,81.469 482.5,91.997 482.5,104.984 C482.5,117.972 471.972,128.5 458.984,128.5 C445.997,128.5 435.469,117.972 435.469,104.984 Z" />
        </g>
        <g id="Black-S">
            <path d="M658.984,76 C642.977,76 630,88.977 630,104.984 C630,120.992 642.977,133.969 658.984,133.969 C666.003,133.969 672.44,131.474 677.455,127.322 L695.332,145.199 C696.4,146.267 698.131,146.267 699.199,145.199 C700.267,144.131 700.267,142.4 699.199,141.332 L681.322,123.455 C685.474,118.44 687.969,112.003 687.969,104.984 C687.969,88.977 674.992,76 658.984,76 Z M635.469,104.984 C635.469,91.997 645.997,81.469 658.984,81.469 C671.972,81.469 682.5,91.997 682.5,104.984 C682.5,117.972 671.972,128.5 658.984,128.5 C645.997,128.5 635.469,117.972 635.469,104.984 Z" />
        </g>
    </g>
</svg>