<?xml version="1.0" encoding="UTF-8"?>
<svg height="600" width="800" xmlns="http://www.w3.org/2000/svg" xmlns:xlink="http://www.w3.org/1999/xlink">
    <g id="Notes" font-family="'LucidaGrande', 'Lucida Grande', sans-serif" font-size="13">
        <rect fill="white" height="600.0" width="800.0" x="0.0" y="0.0" />
        <g font-size="13">
            <text x="18.0" y="176.0">Small</text>
            <text x="18.0" y="376.0">Medium</text>
            <text x="18.0" y="576.0">Large</text>
        </g>
        <g font-size="9">
            <text x="250.0" y="30.0">Ultralight</text>
            <text x="450.0" y="30.0">Regular</text>
            <text x="650.0" y="30.0">Black</text>
            <text id="template-version" fill="#505050" text-anchor="end" x="785.0" y="575.0">Template v.3.0</text>
            <a href="https://wangchujiang.com/#/app">
                <text fill="#505050" text-anchor="end" x="785.0" y="590.0">https://wangchujiang.com/#/app</text>
            </a>
        </g>
    </g>
    <g id="Guides" stroke="rgb(39, 170, 225)" stroke-width="0.5">
        <path id="Capline-S" d="M18,76 l800,0" />
        <path id="H-reference" d="M85,145.755 L87.685,145.755 L113.369,79.287 L114.052,79.287 L114.052,76 L112.148,76 L85,145.755 Z M95.693,121.536 L130.996,121.536 L130.263,119.313 L96.474,119.313 L95.693,121.536 Z M139.15,145.755 L141.787,145.755 L114.638,76 L113.466,76 L113.466,79.287 L139.15,145.755 Z" stroke="none" />
        <path id="Baseline-S" d="M18,146 l800,0" />
        <path id="left-margin-Ultralight-S" d="M219.978,56 l0,110" />
        <path id="right-margin-Ultralight-S" d="M310.022,56 l0,110" />
        <path id="left-margin-Regular-S" d="M419.978,56 l0,110" />
        <path id="right-margin-Regular-S" d="M510.022,56 l0,110" />
        <path id="left-margin-Black-S" d="M619.978,56 l0,110" />
        <path id="right-margin-Black-S" d="M710.022,56 l0,110" />
        <path id="Capline-M" d="M18,276 l800,0" />
        <path id="Baseline-M" d="M18,346 l800,0" />
        <path id="Capline-L" d="M18,476 l800,0" />
        <path id="Baseline-L" d="M18,546 l800,0" />
    </g>
    <g id="Symbols">
        <g id="Ultralight-S">
            <path d="M275.499,76 C261.955,76 250.975,86.98 250.975,100.523 C250.975,102.577 251.228,104.575 251.706,106.486 C251.849,107.059 251.679,107.49 251.472,107.697 L233.826,125.343 C231.345,127.823 229.96,131.192 229.978,134.7 L229.987,136.415 C230.014,141.717 234.319,146 239.621,146 L243.093,146 C247.446,146 250.975,142.471 250.975,138.117 L250.975,135.557 L252.727,135.557 C256.597,135.557 259.734,132.42 259.734,128.55 L261.786,128.55 C263.412,128.55 264.971,127.904 266.121,126.754 L268.325,124.55 C268.532,124.343 268.963,124.173 269.535,124.316 C271.447,124.794 273.445,125.047 275.499,125.047 C289.043,125.047 300.022,114.067 300.022,100.523 C300.022,86.98 289.043,76 275.499,76 Z M256.23,100.523 C256.23,89.882 264.857,81.255 275.499,81.255 C286.14,81.255 294.767,89.882 294.767,100.523 C294.767,111.165 286.14,119.792 275.499,119.792 C273.878,119.792 272.308,119.592 270.809,119.218 C268.744,118.702 266.325,119.119 264.609,120.834 L262.405,123.038 C262.241,123.203 262.018,123.295 261.786,123.295 L259.734,123.295 C256.831,123.295 254.479,125.648 254.479,128.55 C254.479,129.517 253.694,130.302 252.727,130.302 L250.975,130.302 C248.073,130.302 245.72,132.654 245.72,135.557 L245.72,138.117 C245.72,139.569 244.544,140.745 243.093,140.745 L239.621,140.745 C237.211,140.745 235.254,138.798 235.242,136.388 L235.233,134.673 C235.222,132.569 236.053,130.547 237.541,129.059 L255.188,111.413 C256.903,109.697 257.32,107.278 256.804,105.212 C256.43,103.714 256.23,102.144 256.23,100.523 Z M277.251,90.013 C272.413,90.013 268.492,93.934 268.492,98.772 C268.492,103.609 272.413,107.53 277.251,107.53 C282.088,107.53 286.009,103.609 286.009,98.772 C286.009,93.934 282.088,90.013 277.251,90.013 Z M273.747,98.772 C273.747,96.837 275.316,95.268 277.251,95.268 C279.185,95.268 280.754,96.837 280.754,98.772 C280.754,100.706 279.185,102.275 277.251,102.275 C275.316,102.275 273.747,100.706 273.747,98.772 Z" />
        </g>
        <g id="Regular-S">
            <path d="M475.499,76 C461.955,76 450.975,86.98 450.975,100.523 C450.975,102.577 451.228,104.575 451.706,106.486 C451.849,107.059 451.679,107.49 451.472,107.697 L433.826,125.343 C431.345,127.823 429.96,131.192 429.978,134.7 L429.987,136.415 C430.014,141.717 434.319,146 439.621,146 L443.093,146 C447.446,146 450.975,142.471 450.975,138.117 L450.975,135.557 L452.727,135.557 C456.597,135.557 459.734,132.42 459.734,128.55 L461.786,128.55 C463.412,128.55 464.971,127.904 466.121,126.754 L468.325,124.55 C468.532,124.343 468.963,124.173 469.535,124.316 C471.447,124.794 473.445,125.047 475.499,125.047 C489.043,125.047 500.022,114.067 500.022,100.523 C500.022,86.98 489.043,76 475.499,76 Z M456.23,100.523 C456.23,89.882 464.857,81.255 475.499,81.255 C486.14,81.255 494.767,89.882 494.767,100.523 C494.767,111.165 486.14,119.792 475.499,119.792 C473.878,119.792 472.308,119.592 470.809,119.218 C468.744,118.702 466.325,119.119 464.609,120.834 L462.405,123.038 C462.241,123.203 462.018,123.295 461.786,123.295 L459.734,123.295 C456.831,123.295 454.479,125.648 454.479,128.55 C454.479,129.517 453.694,130.302 452.727,130.302 L450.975,130.302 C448.073,130.302 445.72,132.654 445.72,135.557 L445.72,138.117 C445.72,139.569 444.544,140.745 443.093,140.745 L439.621,140.745 C437.211,140.745 435.254,138.798 435.242,136.388 L435.233,134.673 C435.222,132.569 436.053,130.547 437.541,129.059 L455.188,111.413 C456.903,109.697 457.32,107.278 456.804,105.212 C456.43,103.714 456.23,102.144 456.23,100.523 Z M477.251,90.013 C472.413,90.013 468.492,93.934 468.492,98.772 C468.492,103.609 472.413,107.53 477.251,107.53 C482.088,107.53 486.009,103.609 486.009,98.772 C486.009,93.934 482.088,90.013 477.251,90.013 Z M473.747,98.772 C473.747,96.837 475.316,95.268 477.251,95.268 C479.185,95.268 480.754,96.837 480.754,98.772 C480.754,100.706 479.185,102.275 477.251,102.275 C475.316,102.275 473.747,100.706 473.747,98.772 Z" />
        </g>
        <g id="Black-S">
            <path d="M675.499,76 C661.955,76 650.975,86.98 650.975,100.523 C650.975,102.577 651.228,104.575 651.706,106.486 C651.849,107.059 651.679,107.49 651.472,107.697 L633.826,125.343 C631.345,127.823 629.96,131.192 629.978,134.7 L629.987,136.415 C630.014,141.717 634.319,146 639.621,146 L643.093,146 C647.446,146 650.975,142.471 650.975,138.117 L650.975,135.557 L652.727,135.557 C656.597,135.557 659.734,132.42 659.734,128.55 L661.786,128.55 C663.412,128.55 664.971,127.904 666.121,126.754 L668.325,124.55 C668.532,124.343 668.963,124.173 669.535,124.316 C671.447,124.794 673.445,125.047 675.499,125.047 C689.043,125.047 700.022,114.067 700.022,100.523 C700.022,86.98 689.043,76 675.499,76 Z M656.23,100.523 C656.23,89.882 664.857,81.255 675.499,81.255 C686.14,81.255 694.767,89.882 694.767,100.523 C694.767,111.165 686.14,119.792 675.499,119.792 C673.878,119.792 672.308,119.592 670.809,119.218 C668.744,118.702 666.325,119.119 664.609,120.834 L662.405,123.038 C662.241,123.203 662.018,123.295 661.786,123.295 L659.734,123.295 C656.831,123.295 654.479,125.648 654.479,128.55 C654.479,129.517 653.695,130.302 652.727,130.302 L650.975,130.302 C648.073,130.302 645.72,132.654 645.72,135.557 L645.72,138.117 C645.72,139.569 644.544,140.745 643.093,140.745 L639.621,140.745 C637.211,140.745 635.254,138.798 635.242,136.388 L635.233,134.673 C635.222,132.569 636.053,130.547 637.541,129.059 L655.188,111.413 C656.903,109.697 657.32,107.278 656.804,105.212 C656.43,103.714 656.23,102.144 656.23,100.523 Z M677.251,90.013 C672.413,90.013 668.492,93.934 668.492,98.772 C668.492,103.609 672.413,107.53 677.251,107.53 C682.088,107.53 686.009,103.609 686.009,98.772 C686.009,93.934 682.088,90.013 677.251,90.013 Z M673.747,98.772 C673.747,96.837 675.316,95.268 677.251,95.268 C679.185,95.268 680.754,96.837 680.754,98.772 C680.754,100.706 679.185,102.275 677.251,102.275 C675.316,102.275 673.747,100.706 673.747,98.772 Z" />
        </g>
    </g>
</svg>