<svg width="128" height="96" viewBox="0 0 128 96" fill="none" xmlns="http://www.w3.org/2000/svg">
<path opacity="0.2" d="M99.8288 35.6008L101.372 36.0008C101.657 36.0579 101.943 36.3436 102 36.6294L102.4 38.1722C102.514 38.5722 102.857 38.8008 103.2 38.8008C103.6 38.8008 103.943 38.5151 104 38.1722L104.4 36.6294C104.457 36.3436 104.743 36.0579 105.029 36.0008L106.572 35.6008C106.972 35.4865 107.2 35.1436 107.2 34.8008C107.2 34.4008 106.914 34.0579 106.572 34.0008L105.029 33.6008C104.743 33.5436 104.457 33.2579 104.4 32.9722L104 31.4294C103.886 31.0294 103.543 30.8008 103.2 30.8008C102.8 30.8008 102.457 31.0865 102.4 31.4294L102 32.9722C101.943 33.2579 101.657 33.5436 101.372 33.6008L99.8288 34.0008C99.4288 34.1151 99.2002 34.4579 99.2002 34.8008C99.2002 35.2008 99.4859 35.5436 99.8288 35.6008Z" fill="#888888"/>
<path opacity="0.2" d="M112 54C110.9 54 110 54.9 110 56C110 57.1 110.9 58 112 58C113.1 58 114 57.1 114 56C114 54.9 113.1 54 112 54Z" fill="#888888"/>
<path opacity="0.2" d="M15.9428 65.2L18.2571 65.8C18.6857 65.8857 19.1143 66.3143 19.2 66.7429L19.8 69.0571C19.9714 69.6571 20.4857 70 21 70C21.6 70 22.1143 69.5714 22.2 69.0571L22.8 66.7429C22.8857 66.3143 23.3143 65.8857 23.7429 65.8L26.0572 65.2C26.6572 65.0286 27 64.5143 27 64C27 63.4 26.5714 62.8857 26.0572 62.8L23.7429 62.2C23.3143 62.1143 22.8857 61.6857 22.8 61.2571L22.2 58.9429C22.0286 58.3429 21.5143 58 21 58C20.4 58 19.8857 58.4286 19.8 58.9429L19.2 61.2571C19.1143 61.6857 18.6857 62.1143 18.2571 62.2L15.9428 62.8C15.3428 62.9714 15 63.4857 15 64C15 64.6 15.4286 65.1143 15.9428 65.2Z" fill="#888888"/>
<path opacity="0.2" d="M0.628557 43.8L2.17142 44.2C2.45714 44.2571 2.74287 44.5429 2.80001 44.8286L3.19999 46.3714C3.31427 46.7714 3.65714 47 4 47C4.4 47 4.74287 46.7143 4.80001 46.3714L5.19999 44.8286C5.25713 44.5429 5.54286 44.2571 5.82858 44.2L7.37144 43.8C7.77144 43.6857 8 43.3429 8 43C8 42.6 7.7143 42.2571 7.37144 42.2L5.82858 41.8C5.54286 41.7429 5.25713 41.4571 5.19999 41.1714L4.80001 39.6286C4.68573 39.2286 4.34286 39 4 39C3.6 39 3.25713 39.2857 3.19999 39.6286L2.80001 41.1714C2.74287 41.4571 2.45714 41.7429 2.17142 41.8L0.628557 42.2C0.228557 42.3143 0 42.6571 0 43C0 43.4 0.2857 43.7429 0.628557 43.8Z" fill="#888888"/>
<path opacity="0.2" d="M126.5 45C125.675 45 125 45.675 125 46.5C125 47.325 125.675 48 126.5 48C127.325 48 128 47.325 128 46.5C128 45.675 127.325 45 126.5 45Z" fill="#888888"/>
<path opacity="0.2" d="M23 27C21.9 27 21 27.9 21 29C21 30.1 21.9 31 23 31C24.1 31 25 30.1 25 29C25 27.9 24.1 27 23 27Z" fill="#888888"/>
<path fill-rule="evenodd" clip-rule="evenodd" d="M71.2581 18.461C69.6 16.6879 67.4995 15.9864 64.9998 16.0002C58.5006 15.9865 59.4253 16.9233 58.0006 18.4295C55.46 21.1158 54.959 22.566 52.7052 23.3219C50.44 24.0817 48 25 44 25C40 25 34.0422 23.8067 34.0035 28.5793C33.8807 43.7111 36.9874 56.1953 41.5447 63.3477C46.592 71.2694 51.6021 75.3945 58.5006 79.0648C60.844 80.3118 66.9263 80.3118 69.2696 79.0646C76.168 75.3945 84.4115 71.2693 89.4588 63.3477C94.0162 56.1951 96.1178 46.3135 95.9949 31.181C95.9561 26.4043 92.1997 23.7783 87.1292 23.7783C86.591 23.7783 84.6692 23.6723 83.9975 23.7206C83.3919 23.7641 83.8166 24.0671 83.2682 24.0698C81.3355 24.0792 79.7367 23.8389 78.3199 23.3778C76.0617 22.6429 73.8235 21.2045 71.2581 18.461Z" fill="#C18010"/>
<path fill-rule="evenodd" clip-rule="evenodd" d="M67.6623 18.474C64.6356 15.1843 59.3492 15.1769 56.3104 18.4426C53.8113 21.1282 51.6295 22.5781 49.4125 23.3339C47.1843 24.0935 44.4914 24.2976 40.7162 23.7899C36.5092 23.2242 32.0431 26.4208 32.005 31.1924C31.8842 46.3211 33.9515 56.2003 38.4343 63.3513C43.3992 71.2712 51.5082 75.3955 58.2939 79.065C60.599 80.3117 63.4013 80.3117 65.7063 79.0648C72.492 75.3954 80.6009 71.2711 85.5657 63.3513C90.0486 56.2002 92.1159 46.3206 91.995 31.1914C91.9568 26.4156 87.4839 23.2188 83.2742 23.7902C79.5214 24.2996 76.8364 24.1266 74.6087 23.3898C72.3874 22.655 70.1858 21.2169 67.6623 18.474Z" fill="#FFCC33"/>
<path fill-rule="evenodd" clip-rule="evenodd" d="M67.6623 18.474C64.6356 15.1843 59.3492 15.1769 56.3104 18.4426C53.8113 21.1282 51.6295 22.5781 49.4125 23.3339C47.1843 24.0935 44.4914 24.2976 40.7162 23.7899C36.5091 23.2242 32.0431 26.4208 32.005 31.1924C31.8842 46.3211 33.9515 56.2003 38.4343 63.3513C43.3992 71.2712 51.5082 75.3955 58.2939 79.065C60.599 80.3117 63.4013 80.3117 65.7063 79.0648C72.492 75.3954 80.6009 71.2711 85.5657 63.3513C90.0486 56.2002 92.1159 46.3206 91.995 31.1914C91.9568 26.4156 87.4839 23.2188 83.2742 23.7902C79.5214 24.2996 76.8364 24.1266 74.6087 23.3898C72.3874 22.655 70.1858 21.2169 67.6623 18.474Z" fill="#FFD65C"/>
<path fill-rule="evenodd" clip-rule="evenodd" d="M62.1264 79.999C60.8077 80.0202 59.4846 79.7089 58.2941 79.0649C57.9889 78.8999 57.6811 78.734 57.371 78.5668C50.7854 75.0169 43.1761 70.9151 38.4345 63.3513C33.9517 56.2003 31.8844 46.3211 32.0052 31.1924C32.0433 26.4208 36.5093 23.2242 40.7164 23.7899C44.4915 24.2976 47.1844 24.0935 49.4126 23.3339C51.6296 22.5781 53.8114 21.1282 56.3105 18.4426C57.8254 16.8146 59.8989 16 61.9726 16C62.1441 16 62.3156 16.0056 62.4868 16.0167C62.4003 16.4892 60.5228 26.9754 60.5228 47.4754C60.5228 62.6973 61.558 74.6065 62.1264 79.999Z" fill="#FFDE7A"/>
<path fill-rule="evenodd" clip-rule="evenodd" d="M60.6727 74.667L60.6723 74.6668C60.479 74.5623 60.2858 74.458 60.093 74.3538C53.2378 70.6501 46.6951 67.1152 42.6707 60.6955C38.9392 54.743 36.8868 46.0089 37.0048 31.2324C37.0107 30.4933 37.3338 29.8661 37.931 29.3857C38.5778 28.8655 39.3883 28.6563 40.0499 28.7453C44.301 29.317 47.8305 29.1558 51.0258 28.0665C54.2343 26.9727 57.0829 24.9521 59.9707 21.8487C61.0278 20.7128 62.9324 20.7178 63.9827 21.8594C66.9141 25.0455 69.8029 27.0666 73.0386 28.1368C76.2352 29.1942 79.7492 29.3145 83.9467 28.7448C84.6086 28.6549 85.4201 28.8635 86.0677 29.3837C86.6657 29.8641 86.9892 30.4916 86.9952 31.2313C87.1132 46.0085 85.0609 54.7429 81.3293 60.6955C77.3047 67.1155 70.7616 70.6505 63.9062 74.3542C63.7137 74.4582 63.521 74.5623 63.328 74.6666L63.3274 74.667C62.5066 75.111 61.4935 75.111 60.6727 74.667ZM65.7063 79.0648C63.4013 80.3117 60.599 80.3117 58.2939 79.065C57.9888 78.8999 57.681 78.734 57.3709 78.5669C50.7852 75.0169 43.1759 70.9151 38.4343 63.3513C33.9515 56.2003 31.8842 46.3211 32.005 31.1924C32.0431 26.4208 36.5091 23.2242 40.7162 23.7899C44.4914 24.2976 47.1843 24.0935 49.4125 23.3339C51.6295 22.5781 53.8113 21.1282 56.3104 18.4426C59.3492 15.1769 64.6356 15.1843 67.6623 18.474C70.1858 21.2169 72.3874 22.655 74.6087 23.3898C76.8364 24.1266 79.5214 24.2996 83.2742 23.7902C87.4839 23.2188 91.9568 26.4156 91.995 31.1914C92.1159 46.3206 90.0486 56.2002 85.5657 63.3513C80.8239 70.9153 73.2143 75.0172 66.6285 78.5672C66.3187 78.7342 66.0112 78.8999 65.7063 79.0648Z" fill="#E2A412"/>
<path fill-rule="evenodd" clip-rule="evenodd" d="M62.2138 79.9971C60.8661 80.0339 59.5107 79.7232 58.2938 79.065C57.9892 78.9003 57.682 78.7346 57.3725 78.5678L57.3707 78.5669C50.7851 75.0169 43.1758 70.9151 38.4342 63.3513C33.9514 56.2003 31.8841 46.3211 32.0049 31.1924C32.043 26.4208 36.509 23.2242 40.7161 23.7899C44.4913 24.2976 47.1842 24.0935 49.4124 23.3339C51.6293 22.5781 53.8111 21.1282 56.3103 18.4426C57.8252 16.8146 59.8987 16 61.9723 16C62.1441 16 62.3158 16.0056 62.4873 16.0168C62.4621 16.1987 62.2369 17.8606 61.969 21C61.2328 21.0006 60.4967 21.2833 59.9706 21.8487C57.0828 24.9521 54.2342 26.9727 51.0257 28.0665C47.8303 29.1558 44.3009 29.317 40.0497 28.7453C39.3882 28.6563 38.5777 28.8655 37.931 29.3857C37.3337 29.8661 37.0106 30.4933 37.0047 31.2324C36.8868 46.0089 38.9391 54.743 42.6706 60.6955C46.695 67.1152 53.2376 70.6501 60.0927 74.3537L60.0928 74.3537L60.6721 74.6668L60.6725 74.667C61.0399 74.8658 61.4459 74.9755 61.8559 74.9963C61.9851 77.0131 62.1098 78.695 62.2138 79.9971Z" fill="#F9BE1A"/>
<path fill-rule="evenodd" clip-rule="evenodd" d="M76 47.5C76 49.433 74.433 51 72.5 51L50.5 51C48.567 51 47 49.433 47 47.5C47 45.567 48.567 44 50.5 44L72.5 44C74.433 44 76 45.567 76 47.5Z" fill="#F9BE1A"/>
<path fill-rule="evenodd" clip-rule="evenodd" d="M61.5 33C63.433 33 65 34.567 65 36.5V58.5C65 60.433 63.433 62 61.5 62C59.567 62 58 60.433 58 58.5V36.5C58 34.567 59.567 33 61.5 33Z" fill="#F9BE1A"/>
<path fill-rule="evenodd" clip-rule="evenodd" d="M61.5 33C63.433 33 65 34.567 65 36.5V44H72.5C74.433 44 76 45.567 76 47.5C76 49.433 74.433 51 72.5 51H65V58.5C65 60.433 63.433 62 61.5 62C59.567 62 58 60.433 58 58.5V36.5C58 34.567 59.567 33 61.5 33Z" fill="#E2A412"/>
<path fill-rule="evenodd" clip-rule="evenodd" d="M61.2783 61.9933C59.4486 61.8789 58 60.3587 58 58.5002V51.0002H50.5001C48.5671 51.0002 47.0001 49.4332 47.0001 47.5002C47.0001 45.5672 48.5671 44.0002 50.5001 44.0002H58V36.5002C58 34.6453 59.443 33.1274 61.2677 33.0078C61.1085 36.9455 60.9995 41.6096 60.9995 47.0002C60.9995 52.5088 61.1134 57.5622 61.2783 61.9933Z" fill="#F9BE1A"/>
</svg>
