<?xml version="1.0" encoding="UTF-8"?>
<svg height="600" width="800" xmlns="http://www.w3.org/2000/svg" xmlns:xlink="http://www.w3.org/1999/xlink">
    <g id="Notes" font-family="'LucidaGrande', 'Lucida Grande', sans-serif" font-size="13">
        <rect fill="white" height="600.0" width="800.0" x="0.0" y="0.0" />
        <g font-size="13">
            <text x="18.0" y="176.0">Small</text>
            <text x="18.0" y="376.0">Medium</text>
            <text x="18.0" y="576.0">Large</text>
        </g>
        <g font-size="9">
            <text x="250.0" y="30.0">Ultralight</text>
            <text x="450.0" y="30.0">Regular</text>
            <text x="650.0" y="30.0">Black</text>
            <text id="template-version" fill="#505050" text-anchor="end" x="785.0" y="575.0">Template v.3.0</text>
            <a href="https://wangchujiang.com/#/app">
                <text fill="#505050" text-anchor="end" x="785.0" y="590.0">https://wangchujiang.com/#/app</text>
            </a>
        </g>
    </g>
    <g id="Guides" stroke="rgb(39, 170, 225)" stroke-width="0.5">
        <path id="Capline-S" d="M18,76 l800,0" />
        <path id="H-reference" d="M85,145.755 L87.685,145.755 L113.369,79.287 L114.052,79.287 L114.052,76 L112.148,76 L85,145.755 Z M95.693,121.536 L130.996,121.536 L130.263,119.313 L96.474,119.313 L95.693,121.536 Z M139.15,145.755 L141.787,145.755 L114.638,76 L113.466,76 L113.466,79.287 L139.15,145.755 Z" stroke="none" />
        <path id="Baseline-S" d="M18,146 l800,0" />
        <path id="left-margin-Ultralight-S" d="M221,56 l0,110" />
        <path id="right-margin-Ultralight-S" d="M309,56 l0,110" />
        <path id="left-margin-Regular-S" d="M421,56 l0,110" />
        <path id="right-margin-Regular-S" d="M509,56 l0,110" />
        <path id="left-margin-Black-S" d="M621,56 l0,110" />
        <path id="right-margin-Black-S" d="M709,56 l0,110" />
        <path id="Capline-M" d="M18,276 l800,0" />
        <path id="Baseline-M" d="M18,346 l800,0" />
        <path id="Capline-L" d="M18,476 l800,0" />
        <path id="Baseline-L" d="M18,546 l800,0" />
    </g>
    <g id="Symbols">
        <g id="Ultralight-S">
            <path d="M248.03,89.903 C248.03,82.224 254.254,76 261.932,76 C269.61,76 275.835,82.224 275.835,89.903 L275.835,104.386 C275.835,106.072 274.463,107.414 272.804,107.715 C266.94,108.78 262.092,112.762 259.819,118.104 C259.158,119.656 257.524,120.73 255.999,120.01 C251.289,117.784 248.03,112.989 248.03,107.433 L248.03,89.903 Z" />
            <path d="M239.143,107.433 C239.143,118.397 246.886,127.553 257.202,129.731 C258.393,129.982 259.383,130.82 259.868,131.936 C260.936,134.397 262.552,136.565 264.562,138.286 L264.562,140.741 L268.307,140.741 C270.618,141.864 273.214,142.494 275.956,142.494 C277.465,142.494 278.928,142.303 280.325,141.945 C281.42,141.664 282.77,141.856 282.939,142.974 C282.958,143.103 282.968,143.235 282.968,143.37 C282.968,144.823 281.791,146 280.339,146 L243.525,146 C242.073,146 240.896,144.822 240.896,143.37 C240.896,141.918 242.073,140.741 243.525,140.741 L258.426,140.741 L258.426,135.264 C244.59,133.539 233.883,121.736 233.883,107.433 L233.883,106.556 C233.883,105.104 235.061,103.927 236.513,103.927 C237.965,103.927 239.143,105.104 239.143,106.556 L239.143,107.433 Z" />
            <path d="M289.756,111.004 C289.619,112.079 288.217,112.489 287.379,111.802 C286.917,111.423 286.447,111.06 286.03,110.745 C285.16,110.091 284.67,109.047 284.71,107.959 C284.717,107.766 284.721,107.585 284.721,107.433 L284.721,106.556 C284.721,105.104 285.899,103.927 287.351,103.927 C288.804,103.927 289.981,105.104 289.981,106.556 L289.981,107.433 C289.981,108.642 289.904,109.834 289.756,111.004 Z" />
            <path d="M287.558,132.846 C289.087,130.599 289.981,127.885 289.981,124.963 C289.981,117.218 283.702,110.939 275.956,110.939 C268.211,110.939 261.932,117.218 261.932,124.963 C261.932,132.708 268.211,138.987 275.956,138.987 C278.879,138.987 281.592,138.093 283.839,136.564 L291.627,144.353 C292.654,145.38 294.319,145.38 295.346,144.353 C296.373,143.326 296.373,141.661 295.346,140.634 L287.558,132.846 Z M267.191,124.963 C267.191,120.122 271.115,116.198 275.956,116.198 C280.797,116.198 284.721,120.122 284.721,124.963 C284.721,129.804 280.797,133.728 275.956,133.728 C271.115,133.728 267.191,129.804 267.191,124.963 Z" />
        </g>
        <g id="Regular-S">
            <path d="M448.03,89.903 C448.03,82.224 454.254,76 461.932,76 C469.61,76 475.835,82.224 475.835,89.903 L475.835,104.386 C475.835,106.072 474.463,107.414 472.804,107.715 C466.94,108.78 462.092,112.762 459.819,118.104 C459.158,119.656 457.524,120.73 455.999,120.01 C451.289,117.784 448.03,112.989 448.03,107.433 L448.03,89.903 Z" />
            <path d="M439.143,107.433 C439.143,118.397 446.886,127.553 457.202,129.731 C458.393,129.982 459.383,130.82 459.868,131.936 C460.936,134.397 462.551,136.565 464.562,138.286 L464.562,140.741 L468.307,140.741 C470.618,141.864 473.214,142.494 475.956,142.494 C477.465,142.494 478.928,142.303 480.325,141.945 C481.42,141.664 482.77,141.856 482.939,142.974 C482.958,143.103 482.968,143.235 482.968,143.37 C482.968,144.823 481.791,146 480.339,146 L443.525,146 C442.073,146 440.896,144.822 440.896,143.37 C440.896,141.918 442.073,140.741 443.525,140.741 L458.426,140.741 L458.426,135.264 C444.59,133.539 433.883,121.736 433.883,107.433 L433.883,106.556 C433.883,105.104 435.061,103.927 436.513,103.927 C437.965,103.927 439.143,105.104 439.143,106.556 L439.143,107.433 Z" />
            <path d="M489.755,111.004 C489.619,112.079 488.217,112.489 487.379,111.802 C486.917,111.423 486.447,111.06 486.03,110.745 C485.16,110.091 484.67,109.047 484.71,107.959 C484.717,107.766 484.721,107.585 484.721,107.433 L484.721,106.556 C484.721,105.104 485.899,103.927 487.351,103.927 C488.804,103.927 489.981,105.104 489.981,106.556 L489.981,107.433 C489.981,108.642 489.904,109.834 489.755,111.004 Z" />
            <path d="M487.558,132.846 C489.087,130.599 489.981,127.885 489.981,124.963 C489.981,117.218 483.702,110.939 475.956,110.939 C468.211,110.939 461.932,117.218 461.932,124.963 C461.932,132.708 468.211,138.987 475.956,138.987 C478.879,138.987 481.592,138.093 483.839,136.564 L491.627,144.353 C492.654,145.38 494.319,145.38 495.346,144.353 C496.373,143.326 496.373,141.661 495.346,140.634 L487.558,132.846 Z M467.191,124.963 C467.191,120.122 471.115,116.198 475.956,116.198 C480.797,116.198 484.721,120.122 484.721,124.963 C484.721,129.804 480.797,133.728 475.956,133.728 C471.115,133.728 467.191,129.804 467.191,124.963 Z" />
        </g>
        <g id="Black-S">
            <path d="M648.03,89.903 C648.03,82.224 654.254,76 661.932,76 C669.61,76 675.835,82.224 675.835,89.903 L675.835,104.386 C675.835,106.072 674.463,107.414 672.804,107.715 C666.94,108.78 662.092,112.762 659.819,118.104 C659.158,119.656 657.524,120.73 655.999,120.01 C651.289,117.784 648.03,112.989 648.03,107.433 L648.03,89.903 Z" />
            <path d="M639.143,107.433 C639.143,118.397 646.886,127.553 657.202,129.731 C658.393,129.982 659.383,130.82 659.868,131.936 C660.936,134.397 662.552,136.565 664.562,138.286 L664.562,140.741 L668.307,140.741 C670.618,141.864 673.214,142.494 675.956,142.494 C677.465,142.494 678.928,142.303 680.325,141.945 C681.42,141.664 682.77,141.856 682.939,142.974 C682.958,143.103 682.968,143.235 682.968,143.37 C682.968,144.823 681.791,146 680.339,146 L643.525,146 C642.073,146 640.896,144.822 640.896,143.37 C640.896,141.918 642.073,140.741 643.525,140.741 L658.426,140.741 L658.426,135.264 C644.59,133.539 633.883,121.736 633.883,107.433 L633.883,106.556 C633.883,105.104 635.061,103.927 636.513,103.927 C637.965,103.927 639.143,105.104 639.143,106.556 L639.143,107.433 Z" />
            <path d="M689.755,111.004 C689.619,112.079 688.217,112.489 687.379,111.802 C686.917,111.423 686.447,111.06 686.03,110.745 C685.16,110.091 684.67,109.047 684.71,107.959 C684.717,107.766 684.721,107.585 684.721,107.433 L684.721,106.556 C684.721,105.104 685.899,103.927 687.351,103.927 C688.804,103.927 689.981,105.104 689.981,106.556 L689.981,107.433 C689.981,108.642 689.904,109.834 689.755,111.004 Z" />
            <path d="M687.558,132.846 C689.087,130.599 689.981,127.885 689.981,124.963 C689.981,117.218 683.702,110.939 675.956,110.939 C668.211,110.939 661.932,117.218 661.932,124.963 C661.932,132.708 668.211,138.987 675.956,138.987 C678.879,138.987 681.592,138.093 683.839,136.564 L691.627,144.353 C692.654,145.38 694.319,145.38 695.346,144.353 C696.373,143.326 696.373,141.661 695.346,140.634 L687.558,132.846 Z M667.191,124.963 C667.191,120.122 671.115,116.198 675.956,116.198 C680.797,116.198 684.721,120.122 684.721,124.963 C684.721,129.804 680.797,133.728 675.956,133.728 C671.115,133.728 667.191,129.804 667.191,124.963 Z" />
        </g>
    </g>
</svg>