<svg fill="none" viewBox="0 0 24 24" xmlns="http://www.w3.org/2000/svg">
  <path fill="#000" fill-rule="evenodd" d="M12 3.895c3.295-1.457 6.495-.818 8.151-.292 1.205.383 1.85 1.514 1.85 2.633v12.558c0 .835-.5 1.47-1.075 1.806-.57.332-1.33.446-2.033.15-1.59-.668-4.01-1.205-6.402.121a.995.995 0 0 1-.982 0c-2.392-1.326-4.813-.789-6.401-.12-.704.295-1.464.181-2.034-.151C2.498 20.264 2 19.63 2 18.794V6.236c0-1.119.645-2.25 1.849-2.633 1.656-.526 4.856-1.165 8.151.292Zm1 14.579V5.643c2.59-1.067 5.13-.583 6.546-.134.24.076.454.33.454.727v12.562l-.005.007a.23.23 0 0 1-.077.067.3.3 0 0 1-.25.035c-1.558-.655-4.032-1.3-6.668-.433ZM4.454 5.509c1.415-.45 3.957-.933 6.546.134v12.83c-2.636-.866-5.11-.221-6.668.434a.3.3 0 0 1-.25-.035.23.23 0 0 1-.081-.074L4 18.796V6.236c0-.396.214-.65.454-.727Z" clip-rule="evenodd"/>
</svg>
