<svg fill="none" viewBox="0 0 24 24" xmlns="http://www.w3.org/2000/svg">
  <path fill="#000" fill-rule="evenodd" d="M2 7a4 4 0 0 1 4-4h12a4 4 0 0 1 4 4v6a4 4 0 0 1-4 4h-3.132c-.268 0-.551.114-.789.341-1.6 1.528-3.455 2.707-4.844 3.48a1.89 1.89 0 0 1-2.209-.241 2.01 2.01 0 0 1-.568-2.106q.12-.386.226-.773c.014-.05.03-.173-.192-.366A1.43 1.43 0 0 0 5.607 17c-1.126 0-2.062-.468-2.699-1.245C2.29 14.999 2 14.01 2 13zm4-2a2 2 0 0 0-2 2v6c0 .646.186 1.158.456 1.488.253.309.62.512 1.15.512.8 0 1.616.315 2.203.83.597.522 1.08 1.381.805 2.396a24 24 0 0 1-.226.776c1.293-.727 2.926-1.786 4.31-3.107.564-.539 1.328-.895 2.17-.895H18a2 2 0 0 0 2-2V7a2 2 0 0 0-2-2zm3 3a1 1 0 0 1 1-1h6a1 1 0 1 1 0 2h-6a1 1 0 0 1-1-1m-1 3a1 1 0 1 0 0 2h6a1 1 0 1 0 0-2z" clip-rule="evenodd"/>
</svg>
