<svg width="72" height="72" viewBox="0 0 72 72" fill="none" xmlns="http://www.w3.org/2000/svg">
<g id="History-Burn-96">
<circle id="Ellipse 80" cx="53.25" cy="53.25" r="12" fill="#EE1025"/>
<g id="Union">
<path d="M69.3761 44.25C69.5992 44.25 69.8222 44.34 69.9927 44.5155C70.3338 44.8664 70.3338 45.4378 69.9927 45.7887L68.2434 47.5884C67.9023 47.9394 67.3469 47.9394 67.0058 47.5884C66.6647 47.2375 66.6647 46.6661 67.0058 46.3151L68.7551 44.5155C68.9257 44.34 69.1487 44.25 69.3717 44.25H69.3761Z" fill="#CCCCCC"/>
<path d="M68.5014 52.3487H71.1254C71.6064 52.3487 72 52.7536 72 53.2485C72 53.7434 71.6064 54.1484 71.1254 54.1484H68.5014C68.0204 54.1484 67.6268 53.7434 67.6268 53.2485C67.6268 52.7536 68.0204 52.3487 68.5014 52.3487Z" fill="#CCCCCC"/>
<path d="M67.0147 58.9138C67.1853 58.7383 67.4083 58.6484 67.6314 58.6484H67.6357C67.8588 58.6484 68.0818 58.7383 68.2523 58.9138L70.0016 60.7135C70.3427 61.0645 70.3427 61.6359 70.0016 61.9868C69.6605 62.3377 69.1051 62.3377 68.764 61.9868L67.0147 60.1871C66.6736 59.8362 66.6736 59.2648 67.0147 58.9138Z" fill="#CCCCCC"/>
</g>
<path id="Shape" d="M51.6274 60.5832C49.7508 59.983 48.1954 58.517 47.3904 56.284C46.1931 53.1003 48.6597 50.5672 48.6597 50.5672C48.6597 50.5672 48.5886 51.2168 48.8922 51.9337C49.1959 52.6497 49.7858 53.1667 49.7858 53.1667C49.7858 53.1667 49.2141 51.6667 50.6081 49.1667C52.1811 46.3503 55.6487 45.75 55.6487 45.75C55.6487 45.75 54.7726 47.1003 55.1649 48.483C55.4694 49.517 55.9691 50.017 56.5235 51.4167C57.0779 52.8503 56.9886 53.6335 56.9886 53.6335C56.9886 53.6335 57.1498 52.7507 57.5428 52.1505C58.4008 50.8333 59.5625 50.517 59.5625 50.517C59.5625 50.517 58.9551 51.7168 59.0982 53.3333C59.2051 54.517 59.3838 55.8835 58.7227 57.4167C58.2039 58.6335 56.703 60.3002 54.5938 60.75C55.8093 60.25 56.6136 59.0832 56.5242 57.817C56.4704 57.0838 56.0061 56.3833 55.5057 55.9003C55.2019 57.7498 54.1115 57.9667 54.1115 57.9667C54.1115 57.9667 54.737 56.7505 54.8264 55.4003C54.8802 54.8672 54.8444 54.3 54.6657 53.7337C54.094 51.817 53.111 51.3 53.111 51.3C53.111 51.3 53.4329 52.4165 52.2529 54.2167C51.4304 55.4667 50.0364 56.3833 50.09 58.2498C50.1265 59.2498 50.752 60.1002 51.6274 60.5832Z" fill="white"/>
<path id="Subtract" d="M53.25 38.25C44.9657 38.25 38.25 44.9657 38.25 53.25L35.25 54.375C35.001 54.3832 34.751 55.5 34.5 55.5C33.9831 55.5 34.2333 55.5343 33.75 55.5V56.625V58.5V58.1452C24.5389 56.2572 22.5 47.0606 22.5 36C22.5 24.9394 24.5389 15.7428 33.75 13.8548V13.5H36V13.5517C36.4833 13.5174 36.9831 13.5 37.5 13.5C49.295 13.5 58.9702 22.5759 59.923 34.125C59.9369 34.2933 59.9489 34.4624 59.959 34.6319C60.0812 36.6843 58.3225 38.25 56.2664 38.25H53.25Z" fill="#666666"/>
<path id="Subtract_2" d="M53.25 38.25C44.9657 38.25 38.25 44.9657 38.25 53.25V55.9035C37.0348 56.131 35.7813 56.25 34.5 56.25C23.3162 56.25 14.25 47.1838 14.25 36C14.25 24.8162 23.3162 15.75 34.5 15.75C45.6838 15.75 54.75 24.8162 54.75 36C54.75 36.7605 54.7081 37.5112 54.6264 38.25H53.25Z" fill="#FFDE7A"/>
<path id="Subtract_3" d="M15.4023 29.25C18.1822 21.385 25.6831 15.75 34.5001 15.75C45.6838 15.75 54.7501 24.8162 54.7501 36C54.7501 36.6651 54.718 37.3228 54.6553 37.9714C53.7683 29.6952 46.7619 23.25 38.2501 23.25C33.1263 23.25 28.5479 25.5855 25.5216 29.25H15.4023Z" fill="url(#paint0_linear_4251_6423)"/>
<path id="Vector 663" d="M33.0917 37.7843L40.0958 42.198C40.8119 42.6493 41.7547 42.4731 42.2596 41.7938C42.7644 41.1144 42.6611 40.1609 42.0224 39.6054L35.7757 34.1724L33.0917 37.7843Z" fill="#666666"/>
<path id="Union_2" d="M32.2603 35.7832L32.9286 21.7483C32.9686 20.9095 33.6603 20.25 34.5 20.25C35.3397 20.25 36.0314 20.9095 36.0713 21.7483L36.7397 35.7843C36.7941 36.3481 36.6369 36.9327 36.2543 37.4091C35.4761 38.3779 34.0599 38.5325 33.0911 37.7543C32.5381 37.3101 32.2504 36.6581 32.25 36C32.25 35.9278 32.2534 35.8552 32.2603 35.7832Z" fill="#666666"/>
<g id="Subtract_4">
<path d="M38.25 53.6089C37.0405 53.8652 35.7861 54 34.5002 54C26.2903 54 19.3641 48.5036 17.2008 40.9898C16.9714 40.1931 16.1868 39.6627 15.3739 39.8253L13.9022 40.1196C13.0904 40.2819 12.5588 41.0737 12.7744 41.873C15.3573 51.4513 24.1056 58.5 34.5002 58.5C35.7778 58.5 37.0305 58.3935 38.25 58.1889V53.6089Z" fill="url(#paint1_linear_4251_6423)"/>
<path d="M52.3576 38.2761C52.4517 37.5306 52.5002 36.771 52.5002 36C52.5002 26.0589 44.4413 18 34.5002 18C27.8376 18 22.0205 21.6198 18.9082 27H24.75C25.5784 27 26.25 27.6716 26.25 28.5V30C26.25 30.8284 25.5784 31.5 24.75 31.5H13.5C12.6716 31.5 12 30.8284 12 30V17.25C12 16.4216 12.6716 15.75 13.5 15.75H15C15.8284 15.75 16.5 16.4216 16.5 17.25V22.498C20.605 17.0341 27.1399 13.5 34.5002 13.5C46.9266 13.5 57.0002 23.5736 57.0002 36C57.0002 36.7594 56.9626 37.51 56.8891 38.25H53.25C52.9504 38.25 52.6529 38.2588 52.3576 38.2761Z" fill="url(#paint2_linear_4251_6423)"/>
</g>
</g>
<defs>
<linearGradient id="paint0_linear_4251_6423" x1="15.4023" y1="26.8607" x2="54.7501" y2="26.8607" gradientUnits="userSpaceOnUse">
<stop stop-color="#FFCC33"/>
<stop offset="1" stop-color="#FFDE7A"/>
</linearGradient>
<linearGradient id="paint1_linear_4251_6423" x1="34.5001" y1="58.5" x2="34.5001" y2="13.5" gradientUnits="userSpaceOnUse">
<stop stop-color="#AAAAAA"/>
<stop offset="1" stop-color="#888888"/>
</linearGradient>
<linearGradient id="paint2_linear_4251_6423" x1="34.5001" y1="58.5" x2="34.5001" y2="13.5" gradientUnits="userSpaceOnUse">
<stop stop-color="#AAAAAA"/>
<stop offset="1" stop-color="#888888"/>
</linearGradient>
</defs>
</svg>
