<?xml version="1.0" encoding="UTF-8"?>
<svg height="600" width="800" xmlns="http://www.w3.org/2000/svg" xmlns:xlink="http://www.w3.org/1999/xlink">
    <g id="Notes" font-family="'LucidaGrande', 'Lucida Grande', sans-serif" font-size="13">
        <rect fill="white" height="600.0" width="800.0" x="0.0" y="0.0" />
        <g font-size="13">
            <text x="18.0" y="176.0">Small</text>
            <text x="18.0" y="376.0">Medium</text>
            <text x="18.0" y="576.0">Large</text>
        </g>
        <g font-size="9">
            <text x="250.0" y="30.0">Ultralight</text>
            <text x="450.0" y="30.0">Regular</text>
            <text x="650.0" y="30.0">Black</text>
            <text id="template-version" fill="#505050" text-anchor="end" x="785.0" y="575.0">Template v.3.0</text>
            <a href="https://wangchujiang.com/#/app">
                <text fill="#505050" text-anchor="end" x="785.0" y="590.0">https://wangchujiang.com/#/app</text>
            </a>
        </g>
    </g>
    <g id="Guides" stroke="rgb(39, 170, 225)" stroke-width="0.5">
        <path id="Capline-S" d="M18,76 l800,0" />
        <path id="H-reference" d="M85,145.755 L87.685,145.755 L113.369,79.287 L114.052,79.287 L114.052,76 L112.148,76 L85,145.755 Z M95.693,121.536 L130.996,121.536 L130.263,119.313 L96.474,119.313 L95.693,121.536 Z M139.15,145.755 L141.787,145.755 L114.638,76 L113.466,76 L113.466,79.287 L139.15,145.755 Z" stroke="none" />
        <path id="Baseline-S" d="M18,146 l800,0" />
        <path id="left-margin-Ultralight-S" d="M218.407,56 l0,110" />
        <path id="right-margin-Ultralight-S" d="M311.593,56 l0,110" />
        <path id="left-margin-Regular-S" d="M418.407,56 l0,110" />
        <path id="right-margin-Regular-S" d="M511.593,56 l0,110" />
        <path id="left-margin-Black-S" d="M618.407,56 l0,110" />
        <path id="right-margin-Black-S" d="M711.593,56 l0,110" />
        <path id="Capline-M" d="M18,276 l800,0" />
        <path id="Baseline-M" d="M18,346 l800,0" />
        <path id="Capline-L" d="M18,476 l800,0" />
        <path id="Baseline-L" d="M18,546 l800,0" />
    </g>
    <g id="Symbols">
        <g id="Ultralight-S">
            <path d="M257.403,80.702 C260.527,74.433 269.473,74.433 272.598,80.702 L278.647,92.842 C279.079,93.709 279.91,94.309 280.869,94.447 L294.304,96.38 C301.292,97.386 304.07,105.986 298.99,110.89 L289.34,120.206 C288.636,120.885 288.315,121.87 288.481,122.834 L290.769,136.044 C291.968,142.967 284.717,148.267 278.485,145.022 L266.364,138.711 C265.509,138.266 264.491,138.266 263.637,138.711 L251.515,145.022 C245.283,148.267 238.032,142.967 239.231,136.044 L241.519,122.834 C241.686,121.87 241.364,120.885 240.66,120.206 L231.01,110.89 C225.93,105.986 228.708,97.386 235.696,96.38 L249.131,94.447 C250.09,94.309 250.921,93.709 251.353,92.842 L257.403,80.702 Z M267.642,83.172 C266.556,80.991 263.444,80.991 262.357,83.172 L256.308,95.311 C255.065,97.805 252.677,99.53 249.919,99.927 L236.485,101.86 C234.054,102.21 233.088,105.201 234.855,106.907 L244.505,116.223 C246.529,118.177 247.454,121.006 246.973,123.779 L244.686,136.989 C244.269,139.397 246.791,141.24 248.958,140.112 L261.08,133.8 C263.537,132.521 266.463,132.521 268.92,133.8 L281.042,140.112 C283.209,141.24 285.731,139.397 285.314,136.989 L283.027,123.779 C282.546,121.006 283.471,118.177 285.495,116.223 L295.145,106.907 C296.913,105.201 295.946,102.21 293.516,101.86 L280.081,99.927 C277.323,99.53 274.935,97.805 273.692,95.311 L267.642,83.172 Z" />
        </g>
        <g id="Regular-S">
            <path d="M457.403,80.702 C460.527,74.433 469.473,74.433 472.598,80.702 L478.647,92.842 C479.079,93.709 479.91,94.309 480.869,94.447 L494.304,96.38 C501.292,97.386 504.07,105.986 498.99,110.89 L489.34,120.206 C488.636,120.885 488.315,121.87 488.481,122.834 L490.769,136.044 C491.968,142.967 484.717,148.267 478.485,145.022 L466.364,138.711 C465.509,138.266 464.491,138.266 463.637,138.711 L451.515,145.022 C445.283,148.267 438.032,142.967 439.231,136.044 L441.519,122.834 C441.686,121.87 441.364,120.885 440.66,120.206 L431.01,110.89 C425.93,105.986 428.708,97.386 435.696,96.38 L449.131,94.447 C450.09,94.309 450.921,93.709 451.353,92.842 L457.403,80.702 Z M467.642,83.172 C466.556,80.991 463.444,80.991 462.357,83.172 L456.308,95.311 C455.065,97.805 452.677,99.53 449.919,99.927 L436.485,101.86 C434.054,102.21 433.088,105.201 434.855,106.907 L444.505,116.223 C446.529,118.177 447.454,121.006 446.974,123.779 L444.686,136.989 C444.269,139.397 446.791,141.24 448.958,140.112 L461.08,133.8 C463.537,132.521 466.463,132.521 468.92,133.8 L481.042,140.112 C483.209,141.24 485.731,139.397 485.314,136.989 L483.027,123.779 C482.546,121.006 483.471,118.177 485.495,116.223 L495.145,106.907 C496.913,105.201 495.946,102.21 493.516,101.86 L480.081,99.927 C477.323,99.53 474.935,97.805 473.692,95.311 L467.642,83.172 Z" />
        </g>
        <g id="Black-S">
            <path d="M657.403,80.702 C660.527,74.433 669.473,74.433 672.598,80.702 L678.647,92.842 C679.079,93.709 679.91,94.309 680.869,94.447 L694.304,96.38 C701.292,97.386 704.07,105.986 698.99,110.89 L689.34,120.206 C688.636,120.885 688.315,121.87 688.481,122.834 L690.769,136.044 C691.968,142.967 684.717,148.267 678.485,145.022 L666.364,138.711 C665.509,138.266 664.491,138.266 663.637,138.711 L651.515,145.022 C645.283,148.267 638.032,142.967 639.231,136.044 L641.519,122.834 C641.686,121.87 641.364,120.885 640.66,120.206 L631.01,110.89 C625.93,105.986 628.708,97.386 635.696,96.38 L649.131,94.447 C650.09,94.309 650.921,93.709 651.353,92.842 L657.403,80.702 Z M667.642,83.172 C666.556,80.991 663.444,80.991 662.357,83.172 L656.308,95.311 C655.065,97.805 652.677,99.53 649.919,99.927 L636.485,101.86 C634.054,102.21 633.088,105.201 634.854,106.907 L644.505,116.223 C646.529,118.177 647.454,121.006 646.973,123.779 L644.686,136.989 C644.269,139.397 646.791,141.24 648.958,140.112 L661.08,133.8 C663.537,132.521 666.463,132.521 668.92,133.8 L681.042,140.112 C683.209,141.24 685.731,139.397 685.314,136.989 L683.026,123.779 C682.546,121.006 683.471,118.177 685.495,116.223 L695.145,106.907 C696.912,105.201 695.946,102.21 693.516,101.86 L680.081,99.927 C677.323,99.53 674.935,97.805 673.692,95.311 L667.642,83.172 Z" />
        </g>
    </g>
</svg>