<svg width="24" height="25" viewBox="0 0 24 25" fill="none" xmlns="http://www.w3.org/2000/svg">
<path fill-rule="evenodd" clip-rule="evenodd" d="M12 24.9458C18.6274 24.9458 24 19.5732 24 12.9458C24 6.31838 18.6274 0.945801 12 0.945801C5.37258 0.945801 0 6.31838 0 12.9458C0 19.5732 5.37258 24.9458 12 24.9458Z" fill="#DE5833"/>
<path fill-rule="evenodd" clip-rule="evenodd" d="M13.6891 21.8989C13.6891 21.8052 13.7121 21.7838 13.4141 21.1898C12.6221 19.6038 11.8261 17.3678 12.1881 15.9258C12.2541 15.6638 11.4421 6.22381 10.8681 5.91981C10.2301 5.57981 9.44508 5.04046 8.72708 4.92046C8.36279 4.86217 7.88515 4.88978 7.51175 4.94007C7.44539 4.949 7.44264 5.06829 7.50607 5.08977C7.75121 5.17283 8.04887 5.31703 8.2243 5.53506C8.2575 5.57633 8.21294 5.64123 8.16 5.64319C7.99465 5.64932 7.69466 5.71864 7.29886 6.05481C7.25309 6.09369 7.29111 6.16589 7.35003 6.15424C8.20063 5.98595 9.06932 6.06886 9.58126 6.53418C9.61448 6.56438 9.59711 6.61856 9.5538 6.63033C5.11114 7.83765 5.9906 11.7022 7.17328 16.4448C8.06041 20.0021 8.48161 21.5294 8.66714 22.1707C8.72934 22.3857 8.88506 22.5616 9.09843 22.6291C10.7171 23.1418 13.6891 23.1115 13.6891 22.1333V21.8989Z" fill="#DDDDDD"/>
<path fill-rule="evenodd" clip-rule="evenodd" d="M23.0156 12.9458C23.0156 19.0296 18.0838 23.9614 12 23.9614C5.91624 23.9614 0.984375 19.0296 0.984375 12.9458C0.984375 6.86204 5.91624 1.93018 12 1.93018C18.0838 1.93018 23.0156 6.86204 23.0156 12.9458ZM9.42922 22.6931C9.12482 21.7527 8.27411 19.0273 7.43387 15.583C7.40588 15.4682 7.37791 15.354 7.35009 15.2404L7.34939 15.2375C6.33233 11.0833 5.50162 7.69019 10.0545 6.62424C10.0961 6.61449 10.1164 6.56473 10.0889 6.53204C9.56652 5.91233 8.58792 5.70921 7.35054 6.1361C7.29979 6.1536 7.25572 6.10243 7.28725 6.05897C7.52989 5.72453 8.00407 5.46737 8.23816 5.35464C8.28655 5.33134 8.2836 5.2605 8.23235 5.24446C8.07923 5.19652 7.81852 5.12317 7.52526 5.07584C7.45588 5.06464 7.44962 4.94574 7.51928 4.93636C9.27348 4.70035 11.1053 5.22701 12.0245 6.38493C12.0332 6.39584 12.0457 6.40346 12.0593 6.40638C15.4255 7.12927 15.6665 12.4504 15.2787 12.6928C15.2023 12.7406 14.9573 12.7132 14.6341 12.677C13.3243 12.5305 10.7307 12.2403 12.8713 16.2296C12.8924 16.269 12.8644 16.3212 12.8203 16.328C11.6173 16.5151 13.1494 20.272 14.2851 22.7638C18.7503 21.7286 22.0781 17.7258 22.0781 12.9458C22.0781 7.37981 17.566 2.86768 12 2.86768C6.43401 2.86768 1.92188 7.37981 1.92188 12.9458C1.92188 17.6233 5.10848 21.5566 9.42922 22.6931Z" fill="white"/>
<path d="M15.802 17.9517C15.5458 17.8329 14.5604 18.5396 13.9065 19.082C13.7698 18.8886 13.5121 18.748 12.9308 18.8491C12.422 18.9376 12.1411 19.0603 12.0158 19.2718C11.2128 18.9673 9.86182 18.4974 9.53544 18.9512C9.17868 19.4472 9.6246 21.7938 10.0984 22.0985C10.3458 22.2575 11.5292 21.4969 12.1471 20.9724C12.2468 21.1129 12.4073 21.1933 12.7373 21.1856C13.2363 21.1741 14.0458 21.0579 14.1714 20.8255C14.179 20.8114 14.1856 20.7947 14.1912 20.7757C14.8264 21.0131 15.9442 21.2643 16.194 21.2268C16.8447 21.1291 16.1033 18.0913 15.802 17.9517Z" fill="#3CA82B"/>
<path d="M13.9681 19.1515C13.9951 19.1995 14.0167 19.2502 14.0352 19.3017C14.1257 19.555 14.2732 20.3606 14.1617 20.5596C14.0501 20.7585 13.3255 20.8546 12.8785 20.8624C12.4316 20.8701 12.3309 20.7066 12.2404 20.4534C12.168 20.2508 12.1323 19.7745 12.1332 19.5018C12.1148 19.0972 12.2626 18.955 12.9458 18.8445C13.4513 18.7627 13.7186 18.8578 13.8729 19.0206C14.5906 18.485 15.7882 17.729 15.905 17.8672C16.4874 18.5561 16.561 20.196 16.4349 20.8558C16.3936 21.0715 14.4652 20.6421 14.4652 20.4095C14.4652 19.4436 14.2146 19.1786 13.9681 19.1515Z" fill="#4CBA3C"/>
<path d="M9.74381 18.8498C9.90175 18.5999 11.1826 18.9107 11.8857 19.2236C11.8857 19.2236 11.7412 19.8782 11.9712 20.6494C12.0385 20.8749 10.3537 21.8789 10.1337 21.7062C9.87958 21.5066 9.41182 19.3753 9.74381 18.8498Z" fill="#4CBA3C"/>
<path fill-rule="evenodd" clip-rule="evenodd" d="M10.3619 13.7719C10.4656 13.3213 10.9483 12.4722 12.6721 12.4928C13.5436 12.4892 14.6262 12.4924 15.3439 12.4109C16.4106 12.2897 17.2024 12.0317 17.7301 11.8306C18.4763 11.5459 18.7411 11.6094 18.8339 11.7797C18.9359 11.9669 18.8157 12.2901 18.555 12.5876C18.057 13.1559 17.1616 13.5962 15.5803 13.7269C13.9991 13.8576 12.9515 13.4335 12.5005 14.1241C12.306 14.4219 12.4564 15.1239 13.9856 15.3449C16.052 15.6432 17.7491 14.9856 17.9588 15.3827C18.1685 15.7799 16.9606 16.5879 14.8908 16.6048C12.8211 16.6217 11.5283 15.8801 11.0698 15.5115C10.4881 15.0438 10.2278 14.3618 10.3619 13.7719Z" fill="#FFCC33"/>
<g opacity="0.8">
<path d="M12.9986 8.84472C13.1141 8.65568 13.3701 8.50977 13.7891 8.50977C14.208 8.50977 14.4051 8.67648 14.5416 8.86238C14.5693 8.9002 14.5273 8.94471 14.4842 8.9261C14.4739 8.92162 14.4634 8.91704 14.4527 8.91239C14.2995 8.84547 14.1114 8.7633 13.7891 8.75871C13.4443 8.75381 13.227 8.84014 13.0901 8.91455C13.044 8.93963 12.9713 8.88952 12.9986 8.84472Z" fill="#14307E"/>
<path d="M8.28185 9.08658C8.68866 8.91656 9.00839 8.93854 9.23443 8.99201C9.28202 9.00327 9.3151 8.95206 9.27703 8.92136C9.10159 8.77985 8.70895 8.60417 8.19684 8.79513C7.74003 8.96547 7.52471 9.31938 7.52344 9.55207C7.52314 9.6069 7.63596 9.61156 7.66514 9.56514C7.74398 9.43971 7.87503 9.25659 8.28185 9.08658Z" fill="#14307E"/>
<path fill-rule="evenodd" clip-rule="evenodd" d="M14.1449 11.4309C13.7853 11.4309 13.4935 11.1399 13.4935 10.7819C13.4935 10.4238 13.7853 10.1329 14.1449 10.1329C14.5046 10.1329 14.7963 10.4238 14.7963 10.7819C14.7963 11.1399 14.5046 11.4309 14.1449 11.4309ZM14.6037 10.5669C14.6037 10.4742 14.5278 10.399 14.435 10.399C14.3423 10.399 14.2672 10.4742 14.2664 10.5669C14.2664 10.6596 14.3423 10.7347 14.435 10.7347C14.5286 10.7347 14.6037 10.6596 14.6037 10.5669Z" fill="#14307E"/>
<path fill-rule="evenodd" clip-rule="evenodd" d="M9.8292 11.231C9.8292 11.649 9.48953 11.9879 9.06993 11.9879C8.65114 11.9879 8.31067 11.649 8.31067 11.231C8.31067 10.813 8.65114 10.4741 9.06993 10.4741C9.48873 10.4741 9.8292 10.813 9.8292 11.231ZM9.60542 10.9801C9.60542 10.8722 9.5175 10.7842 9.40881 10.7842C9.30091 10.7842 9.213 10.8714 9.2122 10.9801C9.2122 11.088 9.30011 11.1759 9.40881 11.1759C9.5175 11.1759 9.60542 11.088 9.60542 10.9801Z" fill="#14307E"/>
</g>
</svg>
