<?xml version="1.0" encoding="UTF-8"?>
<svg height="600" width="800" xmlns="http://www.w3.org/2000/svg" xmlns:xlink="http://www.w3.org/1999/xlink">
    <g id="Notes" font-family="'LucidaGrande', 'Lucida Grande', sans-serif" font-size="13">
        <rect fill="white" height="600.0" width="800.0" x="0.0" y="0.0" />
        <g font-size="13">
            <text x="18.0" y="176.0">Small</text>
            <text x="18.0" y="376.0">Medium</text>
            <text x="18.0" y="576.0">Large</text>
        </g>
        <g font-size="9">
            <text x="250.0" y="30.0">Ultralight</text>
            <text x="450.0" y="30.0">Regular</text>
            <text x="650.0" y="30.0">Black</text>
            <text id="template-version" fill="#505050" text-anchor="end" x="785.0" y="575.0">Template v.3.0</text>
            <a href="https://wangchujiang.com/#/app">
                <text fill="#505050" text-anchor="end" x="785.0" y="590.0">https://wangchujiang.com/#/app</text>
            </a>
        </g>
    </g>
    <g id="Guides" stroke="rgb(39, 170, 225)" stroke-width="0.5">
        <path id="Capline-S" d="M18,76 l800,0" />
        <path id="H-reference" d="M85,145.755 L87.685,145.755 L113.369,79.287 L114.052,79.287 L114.052,76 L112.148,76 L85,145.755 Z M95.693,121.536 L130.996,121.536 L130.263,119.313 L96.474,119.313 L95.693,121.536 Z M139.15,145.755 L141.787,145.755 L114.638,76 L113.466,76 L113.466,79.287 L139.15,145.755 Z" stroke="none" />
        <path id="Baseline-S" d="M18,146 l800,0" />
        <path id="left-margin-Ultralight-S" d="M218.132,56 l0,110" />
        <path id="right-margin-Ultralight-S" d="M311.868,56 l0,110" />
        <path id="left-margin-Regular-S" d="M418.132,56 l0,110" />
        <path id="right-margin-Regular-S" d="M511.868,56 l0,110" />
        <path id="left-margin-Black-S" d="M618.132,56 l0,110" />
        <path id="right-margin-Black-S" d="M711.868,56 l0,110" />
        <path id="Capline-M" d="M18,276 l800,0" />
        <path id="Baseline-M" d="M18,346 l800,0" />
        <path id="Capline-L" d="M18,476 l800,0" />
        <path id="Baseline-L" d="M18,546 l800,0" />
    </g>
    <g id="Symbols">
        <g id="Ultralight-S">
            <path d="M228.132,94.434 C228.132,84.231 236.42,75.968 246.624,76 L283.491,76.115 C293.649,76.146 301.868,84.39 301.868,94.548 L301.868,111.149 C301.868,113.19 298.915,114.266 297.27,113.058 C296.701,112.639 296.337,111.986 296.337,111.279 L296.337,94.548 C296.337,92.346 295.786,90.272 294.812,88.458 L277.42,104.315 C270.383,110.731 259.617,110.731 252.58,104.315 L235.147,88.42 C234.199,90.216 233.663,92.262 233.663,94.434 L233.663,123.879 C233.663,131.006 239.44,136.783 246.566,136.783 L264.871,136.783 C265.783,136.783 266.59,137.347 266.984,138.168 C267.018,138.239 267.053,138.31 267.087,138.381 C267.917,140.058 266.81,142.313 264.939,142.313 L246.566,142.313 C236.386,142.313 228.132,134.06 228.132,123.879 L228.132,94.434 Z M246.606,81.53 C243.638,81.521 240.902,82.514 238.717,84.191 L256.306,100.229 C261.232,104.72 268.768,104.72 273.694,100.229 L291.215,84.254 C289.062,82.624 286.381,81.654 283.474,81.645 L246.606,81.53 Z" />
            <path d="M301.868,129.41 C301.868,138.572 294.44,146 285.277,146 C276.115,146 268.687,138.572 268.687,129.41 C268.687,120.247 276.115,112.819 285.277,112.819 C294.44,112.819 301.868,120.247 301.868,129.41 Z M287.121,127.566 L287.121,118.349 L283.434,118.349 L283.434,127.566 L274.217,127.566 L274.217,131.253 L283.434,131.253 L283.434,140.47 L287.121,140.47 L287.121,131.253 L296.337,131.253 L296.337,127.566 L287.121,127.566 Z" />
        </g>
        <g id="Regular-S">
            <path d="M428.132,94.434 C428.132,84.231 436.42,75.968 446.624,76 L483.491,76.115 C493.649,76.146 501.868,84.39 501.868,94.548 L501.868,111.149 C501.868,113.19 498.915,114.266 497.27,113.058 C496.701,112.639 496.337,111.986 496.337,111.279 L496.337,94.548 C496.337,92.346 495.786,90.272 494.812,88.458 L477.42,104.315 C470.383,110.731 459.617,110.731 452.58,104.315 L435.147,88.42 C434.199,90.216 433.663,92.262 433.663,94.434 L433.663,123.879 C433.663,131.006 439.44,136.783 446.566,136.783 L464.871,136.783 C465.783,136.783 466.59,137.347 466.984,138.168 C467.018,138.239 467.053,138.31 467.087,138.381 C467.917,140.058 466.81,142.313 464.939,142.313 L446.566,142.313 C436.386,142.313 428.132,134.06 428.132,123.879 L428.132,94.434 Z M446.606,81.53 C443.638,81.521 440.902,82.514 438.717,84.191 L456.306,100.229 C461.232,104.72 468.768,104.72 473.694,100.229 L491.215,84.254 C489.062,82.624 486.381,81.654 483.474,81.645 L446.606,81.53 Z" />
            <path d="M501.868,129.41 C501.868,138.572 494.44,146 485.277,146 C476.115,146 468.687,138.572 468.687,129.41 C468.687,120.247 476.115,112.819 485.277,112.819 C494.44,112.819 501.868,120.247 501.868,129.41 Z M487.121,127.566 L487.121,118.349 L483.434,118.349 L483.434,127.566 L474.217,127.566 L474.217,131.253 L483.434,131.253 L483.434,140.47 L487.121,140.47 L487.121,131.253 L496.337,131.253 L496.337,127.566 L487.121,127.566 Z" />
        </g>
        <g id="Black-S">
            <path d="M628.132,94.434 C628.132,84.231 636.42,75.968 646.624,76 L683.491,76.115 C693.649,76.146 701.868,84.39 701.868,94.548 L701.868,111.149 C701.868,113.19 698.915,114.266 697.27,113.058 C696.701,112.639 696.337,111.986 696.337,111.279 L696.337,94.548 C696.337,92.346 695.786,90.272 694.812,88.458 L677.42,104.315 C670.383,110.731 659.617,110.731 652.58,104.315 L635.147,88.42 C634.199,90.216 633.663,92.262 633.663,94.434 L633.663,123.879 C633.663,131.006 639.44,136.783 646.566,136.783 L664.871,136.783 C665.783,136.783 666.59,137.347 666.984,138.168 C667.018,138.239 667.053,138.31 667.087,138.381 C667.917,140.058 666.81,142.313 664.939,142.313 L646.566,142.313 C636.385,142.313 628.132,134.06 628.132,123.879 L628.132,94.434 Z M646.606,81.53 C643.638,81.521 640.902,82.514 638.717,84.191 L656.306,100.229 C661.232,104.72 668.768,104.72 673.694,100.229 L691.215,84.254 C689.062,82.624 686.381,81.654 683.474,81.645 L646.606,81.53 Z" />
            <path d="M701.868,129.41 C701.868,138.572 694.44,146 685.277,146 C676.115,146 668.687,138.572 668.687,129.41 C668.687,120.247 676.115,112.819 685.277,112.819 C694.44,112.819 701.868,120.247 701.868,129.41 Z M687.12,127.566 L687.12,118.349 L683.434,118.349 L683.434,127.566 L674.217,127.566 L674.217,131.253 L683.434,131.253 L683.434,140.47 L687.12,140.47 L687.12,131.253 L696.337,131.253 L696.337,127.566 L687.12,127.566 Z" />
        </g>
    </g>
</svg>